<svg width="139" height="178" viewBox="0 0 139 178" fill="none" xmlns="http://www.w3.org/2000/svg">
<path d="M53.764 21.3281C53.764 12.9191 60.5894 6.09375 68.9984 6.09375C77.4083 6.09375 84.2328 12.9191 84.2328 21.3281V30.6719H90.3265V21.3281C90.3265 9.5675 80.7598 0 68.9984 0C57.2378 0 47.6703 9.5675 47.6703 21.3281V30.6719H53.764V21.3281Z" fill="white"/>
<path fill-rule="evenodd" clip-rule="evenodd" d="M26.3422 104C25.4281 104 24.5752 103.573 24.0269 102.903C23.4175 102.233 23.1731 101.319 23.3564 100.405L35.5439 33.1705C35.7875 31.7073 37.0674 30.6719 38.5297 30.6719H47.6703V42.8594H44.6234C42.9167 42.8594 41.5766 44.1995 41.5766 45.9062C41.5766 47.6122 42.9167 48.9531 44.6234 48.9531H56.8109C58.5177 48.9531 59.8578 47.6122 59.8578 45.9062C59.8578 44.1995 58.5177 42.8594 56.8109 42.8594H53.7641V30.6719H84.2328V42.8594H81.1859C79.4792 42.8594 78.1391 44.1995 78.1391 45.9062C78.1391 47.6122 79.4792 48.9531 81.1859 48.9531H93.3734C95.0802 48.9531 96.4203 47.6122 96.4203 45.9062C96.4203 44.1995 95.0802 42.8594 93.3734 42.8594H90.3266V30.6719H99.4672C100.93 30.6719 102.209 31.7073 102.453 33.1705L114.64 100.405C114.824 101.319 114.579 102.233 113.971 102.903C113.422 103.573 112.569 104 111.655 104H26.3422Z" fill="white"/>
<path d="M69.6 87.5C68.1334 87.5 66.6667 87.3167 65.2 86.95C63.7667 86.5833 62.4667 85.95 61.3 85.05C60.1667 84.15 59.2334 82.95 58.5 81.45C57.7667 79.95 57.4 78.0667 57.4 75.8C57.4 74.9667 57.4667 73.9667 57.6 72.8C57.7334 71.6333 57.9834 70.4333 58.35 69.2C58.75 67.9667 59.2834 66.75 59.95 65.55C60.65 64.3167 61.55 63.2167 62.65 62.25C63.75 61.2833 65.0834 60.5 66.65 59.9C68.2167 59.3 70.0834 59 72.25 59C73.9834 59 75.45 59.2 76.65 59.6C77.85 60 78.8167 60.55 79.55 61.25C80.2834 61.9167 80.8167 62.7 81.15 63.6C81.4834 64.5 81.65 65.4667 81.65 66.5C81.65 68.0333 81.3334 69.3333 80.7 70.4C80.1 71.4667 79.3 72.3667 78.3 73.1C77.3334 73.8 76.25 74.35 75.05 74.75C73.85 75.15 72.6667 75.4667 71.5 75.7C70.3334 75.9 69.25 76.0333 68.25 76.1C67.2834 76.1333 66.5334 76.15 66 76.15C66 76.7833 66.0834 77.4167 66.25 78.05C66.45 78.65 66.7334 79.1833 67.1 79.65C67.4667 80.1167 67.95 80.5 68.55 80.8C69.15 81.1 69.8834 81.25 70.75 81.25C71.6167 81.25 72.2834 81.1167 72.75 80.85C73.25 80.55 73.65 80.2333 73.95 79.9C74.25 79.5333 74.5 79.2167 74.7 78.95C74.9334 78.65 75.2334 78.5 75.6 78.5C75.7667 78.5 76.05 78.55 76.45 78.65C76.8834 78.7167 77.3167 78.8833 77.75 79.15C78.1834 79.4167 78.5667 79.7833 78.9 80.25C79.2334 80.7167 79.4 81.3167 79.4 82.05C79.4 83.0167 79.1 83.85 78.5 84.55C77.9 85.25 77.1167 85.8167 76.15 86.25C75.2167 86.6833 74.1667 87 73 87.2C71.8334 87.4 70.7 87.5 69.6 87.5ZM70.55 65.65C69.8167 65.65 69.1834 65.8667 68.65 66.3C68.15 66.7 67.7167 67.2167 67.35 67.85C67.0167 68.4833 66.75 69.1833 66.55 69.95C66.3834 70.7167 66.25 71.45 66.15 72.15C68.2167 72.1167 69.8834 71.7667 71.15 71.1C72.45 70.4333 73.1 69.4833 73.1 68.25C73.1 67.5833 72.8834 66.9833 72.45 66.45C72.05 65.9167 71.4167 65.65 70.55 65.65Z" fill="#13544E"/>
<path d="M17.584 177.72C15.472 177.72 13.36 177.456 11.248 176.928C9.18399 176.4 7.31199 175.488 5.63199 174.192C3.99999 172.896 2.65599 171.168 1.59999 169.008C0.543991 166.848 0.0159912 164.136 0.0159912 160.872C0.0159912 159.672 0.111991 158.232 0.303991 156.552C0.495991 154.872 0.855991 153.144 1.38399 151.368C1.95999 149.592 2.72799 147.84 3.68799 146.112C4.69599 144.336 5.99199 142.752 7.57599 141.36C9.15999 139.968 11.08 138.84 13.336 137.976C15.592 137.112 18.28 136.68 21.4 136.68C23.896 136.68 26.008 136.968 27.736 137.544C29.464 138.12 30.856 138.912 31.912 139.92C32.968 140.88 33.736 142.008 34.216 143.304C34.696 144.6 34.936 145.992 34.936 147.48C34.936 149.688 34.48 151.56 33.568 153.096C32.704 154.632 31.552 155.928 30.112 156.984C28.72 157.992 27.16 158.784 25.432 159.36C23.704 159.936 22 160.392 20.32 160.728C18.64 161.016 17.08 161.208 15.64 161.304C14.248 161.352 13.168 161.376 12.4 161.376C12.4 162.288 12.52 163.2 12.76 164.112C13.048 164.976 13.456 165.744 13.984 166.416C14.512 167.088 15.208 167.64 16.072 168.072C16.936 168.504 17.992 168.72 19.24 168.72C20.488 168.72 21.448 168.528 22.12 168.144C22.84 167.712 23.416 167.256 23.848 166.776C24.28 166.248 24.64 165.792 24.928 165.408C25.264 164.976 25.696 164.76 26.224 164.76C26.464 164.76 26.872 164.832 27.448 164.976C28.072 165.072 28.696 165.312 29.32 165.696C29.944 166.08 30.496 166.608 30.976 167.28C31.456 167.952 31.696 168.816 31.696 169.872C31.696 171.264 31.264 172.464 30.4 173.472C29.536 174.48 28.408 175.296 27.016 175.92C25.672 176.544 24.16 177 22.48 177.288C20.8 177.576 19.168 177.72 17.584 177.72ZM18.952 146.256C17.896 146.256 16.984 146.568 16.216 147.192C15.496 147.768 14.872 148.512 14.344 149.424C13.864 150.336 13.48 151.344 13.192 152.448C12.952 153.552 12.76 154.608 12.616 155.616C15.592 155.568 17.992 155.064 19.816 154.104C21.688 153.144 22.624 151.776 22.624 150C22.624 149.04 22.312 148.176 21.688 147.408C21.112 146.64 20.2 146.256 18.952 146.256Z" fill="white"/>
<path d="M42.124 161.476C41.86 161.476 41.728 161.344 41.728 161.08L41.836 159.136C41.86 158.824 41.896 158.524 41.944 158.236C42.016 157.924 42.136 157.648 42.304 157.408C42.496 157.168 42.76 156.976 43.096 156.832C43.432 156.688 43.876 156.616 44.428 156.616H54.22C54.364 156.616 54.496 156.664 54.616 156.76C54.736 156.832 54.796 156.952 54.796 157.12L54.652 159.064C54.604 159.784 54.4 160.372 54.04 160.828C53.704 161.26 52.996 161.476 51.916 161.476H42.124Z" fill="white"/>
<path d="M66.5929 148.84C68.6329 148.84 70.1329 149.248 71.0929 150.064C72.0529 150.856 72.5329 151.876 72.5329 153.124C72.5329 154.18 72.1969 154.984 71.5249 155.536C70.8769 156.088 69.9289 156.364 68.6809 156.364C68.3449 156.364 68.1169 156.328 67.9969 156.256C67.8769 156.184 67.8169 156.052 67.8169 155.86C67.8169 155.644 67.7929 155.404 67.7449 155.14C67.7209 154.852 67.6369 154.588 67.4929 154.348C67.3729 154.084 67.1689 153.868 66.8809 153.7C66.6169 153.532 66.2329 153.448 65.7289 153.448C65.0569 153.448 64.5169 153.616 64.1089 153.952C63.7009 154.264 63.4969 154.66 63.4969 155.14C63.4969 155.644 63.7009 156.052 64.1089 156.364C64.5409 156.652 65.0689 156.928 65.6929 157.192C66.3409 157.456 67.0369 157.732 67.7809 158.02C68.5249 158.284 69.2089 158.644 69.8329 159.1C70.4809 159.556 71.0089 160.132 71.4169 160.828C71.8489 161.5 72.0649 162.376 72.0649 163.456C72.0649 165.184 71.4529 166.6 70.2289 167.704C69.0049 168.808 67.1689 169.36 64.7209 169.36C64.0489 169.36 63.2689 169.3 62.3809 169.18C61.5169 169.084 60.6889 168.928 59.8969 168.712C59.1049 168.472 58.4329 168.16 57.8809 167.776C57.3529 167.392 57.0889 166.912 57.0889 166.336C57.0889 166.12 57.1249 165.856 57.1969 165.544C57.2929 165.232 57.4249 164.932 57.5929 164.644C57.7849 164.356 58.0009 164.116 58.2409 163.924C58.5049 163.708 58.8169 163.6 59.1769 163.6C59.4649 163.6 59.7289 163.672 59.9689 163.816C60.2089 163.96 60.4849 164.116 60.7969 164.284C61.1329 164.428 61.5409 164.572 62.0209 164.716C62.5009 164.86 63.1369 164.932 63.9289 164.932C64.5289 164.932 65.0569 164.86 65.5129 164.716C65.9929 164.572 66.2329 164.248 66.2329 163.744C66.2329 163.288 66.0409 162.928 65.6569 162.664C65.2729 162.376 64.7809 162.112 64.1809 161.872C63.6049 161.632 62.9689 161.38 62.2729 161.116C61.6009 160.828 60.9649 160.456 60.3649 160C59.7889 159.544 59.3089 158.968 58.9249 158.272C58.5409 157.552 58.3489 156.628 58.3489 155.5C58.3489 154.276 58.5889 153.244 59.0689 152.404C59.5729 151.54 60.2089 150.844 60.9769 150.316C61.7689 149.788 62.6569 149.416 63.6409 149.2C64.6249 148.96 65.6089 148.84 66.5929 148.84Z" fill="white"/>
<path d="M87.1671 164.536C87.2391 163.744 87.3111 162.916 87.3831 162.052C87.4791 161.188 87.5511 160.36 87.5991 159.568C87.6711 158.776 87.7311 158.068 87.7791 157.444C87.827 156.82 87.8511 156.364 87.8511 156.076C87.8511 155.452 87.6951 154.9 87.3831 154.42C87.0951 153.916 86.5191 153.664 85.6551 153.664C84.5031 153.664 83.5671 154.204 82.8471 155.284C82.1511 156.364 81.7431 157.804 81.6231 159.604C81.5751 160.108 81.5151 160.816 81.4431 161.728C81.3711 162.616 81.299 163.528 81.2271 164.464C81.1551 165.376 81.0831 166.204 81.0111 166.948C80.9631 167.668 80.9391 168.112 80.9391 168.28C80.9391 168.568 80.8791 168.76 80.7591 168.856C80.6631 168.952 80.4591 169 80.1471 169H78.8511C78.107 169 77.4951 168.928 77.0151 168.784C76.5591 168.616 76.1871 168.388 75.8991 168.1C75.6351 167.812 75.4431 167.464 75.3231 167.056C75.2271 166.624 75.1791 166.132 75.1791 165.58C75.1791 165.052 75.2151 164.32 75.2871 163.384C75.3831 162.424 75.5031 161.116 75.6471 159.46C75.7911 157.78 75.9591 155.644 76.1511 153.052C76.3431 150.46 76.5471 147.244 76.7631 143.404C76.7871 142.876 76.8471 142.564 76.9431 142.468C77.0151 142.396 77.2071 142.36 77.5191 142.36H78.9231C79.6431 142.36 80.243 142.444 80.7231 142.612C81.2031 142.78 81.5871 143.008 81.8751 143.296C82.1631 143.584 82.3671 143.92 82.4871 144.304C82.6071 144.664 82.6671 145.048 82.6671 145.456C82.6671 145.888 82.6191 146.692 82.5231 147.868C82.4511 149.044 82.3551 150.424 82.2351 152.008C82.9551 150.808 83.7471 149.98 84.6111 149.524C85.4991 149.068 86.6151 148.84 87.9591 148.84C88.9671 148.84 89.8431 148.948 90.5871 149.164C91.3311 149.38 91.9431 149.752 92.4231 150.28C92.9271 150.784 93.2991 151.456 93.5391 152.296C93.7791 153.112 93.8991 154.132 93.8991 155.356C93.8991 155.74 93.8631 156.4 93.7911 157.336C93.7191 158.272 93.6231 159.34 93.5031 160.54C93.4071 161.74 93.2991 163 93.1791 164.32C93.0831 165.616 92.9991 166.804 92.9271 167.884C92.9031 168.148 92.8791 168.352 92.8551 168.496C92.8311 168.64 92.7831 168.748 92.7111 168.82C92.6631 168.892 92.5791 168.94 92.4591 168.964C92.3391 168.988 92.1711 169 91.9551 169H90.8031C90.0351 169 89.4111 168.928 88.9311 168.784C88.451 168.64 88.0791 168.436 87.8151 168.172C87.5511 167.908 87.3591 167.584 87.2391 167.2C87.1431 166.792 87.0951 166.336 87.0951 165.832C87.0951 165.592 87.0951 165.364 87.0951 165.148C87.1191 164.932 87.1431 164.728 87.1671 164.536Z" fill="white"/>
<path d="M105.281 169.36C103.625 169.36 102.245 169.132 101.141 168.676C100.061 168.196 99.1974 167.548 98.5494 166.732C97.9014 165.916 97.4454 164.968 97.1814 163.888C96.9174 162.784 96.7854 161.608 96.7854 160.36C96.7854 158.92 96.9534 157.516 97.2894 156.148C97.6494 154.756 98.2494 153.52 99.0894 152.44C99.9294 151.36 101.033 150.496 102.401 149.848C103.793 149.176 105.521 148.84 107.585 148.84C110.609 148.84 112.769 149.584 114.065 151.072C115.385 152.536 116.045 154.6 116.045 157.264C116.045 158.008 115.985 158.836 115.865 159.748C115.769 160.636 115.565 161.524 115.253 162.412C114.965 163.3 114.557 164.164 114.029 165.004C113.525 165.844 112.877 166.588 112.085 167.236C111.293 167.884 110.333 168.4 109.205 168.784C108.101 169.168 106.793 169.36 105.281 169.36ZM106.973 153.628C106.061 153.628 105.329 153.868 104.777 154.348C104.249 154.804 103.841 155.368 103.553 156.04C103.289 156.688 103.109 157.384 103.013 158.128C102.941 158.848 102.905 159.46 102.905 159.964C102.905 161.548 103.157 162.712 103.661 163.456C104.165 164.2 104.885 164.572 105.821 164.572C106.661 164.572 107.345 164.308 107.873 163.78C108.425 163.252 108.845 162.616 109.133 161.872C109.445 161.128 109.649 160.348 109.745 159.532C109.865 158.716 109.925 158.032 109.925 157.48C109.925 156.28 109.697 155.344 109.241 154.672C108.809 153.976 108.053 153.628 106.973 153.628Z" fill="white"/>
<path d="M131.289 148.84C133.545 148.84 135.237 149.536 136.365 150.928C137.517 152.32 138.093 154.516 138.093 157.516C138.093 159.388 137.877 161.056 137.445 162.52C137.013 163.984 136.413 165.232 135.645 166.264C134.877 167.272 133.977 168.04 132.945 168.568C131.913 169.096 130.797 169.36 129.597 169.36C128.325 169.36 127.329 169.084 126.609 168.532C125.889 167.98 125.325 167.2 124.917 166.192C124.845 167.056 124.785 167.716 124.737 168.172C124.689 168.628 124.653 168.988 124.629 169.252C124.605 169.54 124.581 169.792 124.557 170.008C124.557 170.224 124.533 170.512 124.485 170.872C124.461 171.232 124.425 171.724 124.377 172.348C124.329 172.972 124.257 173.836 124.161 174.94C124.137 175.228 124.077 175.42 123.981 175.516C123.885 175.612 123.681 175.66 123.369 175.66H122.073C121.329 175.66 120.717 175.576 120.237 175.408C119.781 175.264 119.409 175.048 119.121 174.76C118.857 174.472 118.665 174.112 118.545 173.68C118.449 173.272 118.401 172.792 118.401 172.24C118.401 172 118.437 171.352 118.509 170.296C118.581 169.24 118.665 167.98 118.761 166.516C118.881 165.028 119.001 163.432 119.121 161.728C119.265 160.024 119.397 158.404 119.517 156.868C119.637 155.308 119.733 153.928 119.805 152.728C119.901 151.528 119.973 150.7 120.021 150.244C120.045 149.716 120.105 149.404 120.201 149.308C120.273 149.236 120.465 149.2 120.777 149.2H122.181C123.477 149.2 124.413 149.476 124.989 150.028C125.589 150.556 125.889 151.192 125.889 151.936C126.441 150.832 127.149 150.04 128.013 149.56C128.901 149.08 129.993 148.84 131.289 148.84ZM128.661 153.628C127.437 153.628 126.537 154.156 125.961 155.212C125.385 156.268 125.097 157.708 125.097 159.532C125.097 160.156 125.133 160.768 125.205 161.368C125.301 161.968 125.457 162.508 125.673 162.988C125.889 163.468 126.177 163.852 126.537 164.14C126.921 164.428 127.401 164.572 127.977 164.572C129.009 164.572 129.873 164.068 130.569 163.06C131.265 162.052 131.613 160.468 131.613 158.308C131.613 157.708 131.565 157.132 131.469 156.58C131.397 156.004 131.253 155.5 131.037 155.068C130.821 154.636 130.521 154.288 130.137 154.024C129.753 153.76 129.261 153.628 128.661 153.628Z" fill="white"/>
</svg>
