<svg width="16" height="16" viewBox="0 0 16 16" fill="none" xmlns="http://www.w3.org/2000/svg">
<path d="M11.3203 0.993515C11.1471 0.998676 10.9828 1.07106 10.862 1.19534L4.52868 7.52867C4.4037 7.6537 4.3335 7.82324 4.3335 8.00002C4.3335 8.17681 4.4037 8.34635 4.52868 8.47138L10.862 14.8047C10.9234 14.8687 10.997 14.9198 11.0784 14.955C11.1599 14.9902 11.2475 15.0087 11.3362 15.0097C11.4249 15.0106 11.5129 14.9937 11.595 14.9602C11.6771 14.9267 11.7517 14.8771 11.8144 14.8144C11.8771 14.7517 11.9267 14.6771 11.9602 14.595C11.9938 14.5128 12.0106 14.4249 12.0097 14.3362C12.0088 14.2475 11.9902 14.1599 11.955 14.0784C11.9198 13.997 11.8687 13.9234 11.8047 13.862L5.94274 8.00002L11.8047 2.13805C11.9011 2.0444 11.9669 1.92384 11.9935 1.79216C12.0201 1.66048 12.0064 1.52383 11.954 1.4001C11.9017 1.27638 11.8131 1.17136 11.7001 1.09881C11.587 1.02626 11.4546 0.989555 11.3203 0.993515Z" fill="#082121"/>
</svg>
